# xmcd
#
# Track frame offsets: 
#        150
#        6062
#        17945
#        26660
#        37953
#        49299
#        65650
#        80109
#        94505
#        113968
#        125309
#        139908
#
# Disc length: 2176 seconds
#
# Revision: 0
# Processed by: cddbd v1.5.2PL0 Copyright (c) Steve Scherf et al.
# Submitted via: ExactAudioCopy v0.95a5
#
DISCID=a0087e0c
DTITLE=The Billys - The Billys Live!
DYEAR=2005
DGENRE=Bluegrass
TTITLE0=Foggy Mountain Breakdown
TTITLE1=Country Boy
TTITLE2=Barefoot Nellie
TTITLE3=The Letter
TTITLE4=How Mountain Girls Can Love
TTITLE5=Downtown
TTITLE6=Flowers On The Wall
TTITLE7=No Matter What
TTITLE8=Rocky Top
TTITLE9=Ticket To Ride
TTITLE10=Orange Blossom Special
TTITLE11=The Devil Went Down To Georgia
EXTD=
EXTT0=
EXTT1=
EXTT2=
EXTT3=
EXTT4=
EXTT5=
EXTT6=
EXTT7=
EXTT8=
EXTT9=
EXTT10=
EXTT11=
PLAYORDER=
